<svg width="10" height="10" viewBox="0 0 10 10" fill="none" xmlns="http://www.w3.org/2000/svg">
<path fill-rule="evenodd" clip-rule="evenodd" d="M5 1.88153L4.0344 3.83958L1.88216 4.16071L3.43635 5.69564L3.0748 7.85388L5 6.84059L6.92521 7.85388L6.56366 5.69564L8.11785 4.16071L5.96561 3.83958L5 1.88153Z" fill="#FFE24B"/>
<path fill-rule="evenodd" clip-rule="evenodd" d="M4.43352 1.60239C4.66498 1.13254 5.33502 1.13254 5.56648 1.60239L6.38557 3.26394L8.21099 3.53612C8.72569 3.61285 8.93188 4.24438 8.56149 4.61003L7.24065 5.91445L7.54789 7.74967C7.63441 8.26499 7.09319 8.65622 6.63123 8.41277L5 7.55452L3.36877 8.41277C2.90681 8.65622 2.36559 8.26499 2.45211 7.74967L2.75935 5.91445L1.43851 4.61003C1.06812 4.24438 1.27431 3.61285 1.78901 3.53612L3.61412 3.26394L4.43352 1.60239ZM5 1.88153L4.03439 3.83957L1.88215 4.1607L3.43634 5.69563L3.07479 7.85387L5 6.84058L6.9252 7.85387L6.56366 5.69563L8.11784 4.1607L5.9656 3.83957L5 1.88153Z" fill="#FFE24B"/>
</svg>
