<svg version="1" xmlns="http://www.w3.org/2000/svg" width="400" height="400" viewBox="0 0 300.000000 300.000000"><path d="M170.3 19.5c-5.9 2.5-7.1 8.9-2.5 13.4l2.7 2.8-3.6 11.7-3.7 11.6 3.4 3.4c3.8 3.8 4.3 7.2 1.7 11.7-4.3 7.3-14.6 4.8-16.8-4.1-.4-1.8.1-3.7 1.9-6.3 1.5-2.1 2.6-3.9 2.6-4.1 0-.1-3.1-4.2-6.9-9.1l-7-8.8 2.5-2.9c3.1-3.8 3.1-7.9-.2-11.7-2-2.5-3.4-3.1-6.4-3.1-10.1 0-13.3 11.9-4.7 17l3.4 2-2.8 9.8c-3.2 10.9-3.5 13.2-1.5 13.2 2.6 0 6.5 4.1 7.2 7.4.7 3.8-1.5 8.9-4.5 10.6-1.1.5-3.5 1-5.5 1-7.5 0-12.2-9-7.8-14.9l2-2.8-8.4-8.4c-7.3-7.3-8.2-8.5-7-9.9 5.6-6.1.4-16.3-7.9-15.4-3.4.3-8.5 5.4-8.5 8.4 0 4.1 2 7.2 6 8.8 3 1.3 3.8 2.2 3.5 3.7-.2 1.1-.9 5.6-1.5 10s-1.3 8.7-1.6 9.7c-.3 1.2.4 1.8 2.5 2.3 7.1 1.5 9.4 10.3 4.2 15.6-7.4 7.3-19.2-1.3-14.5-10.5l1.5-3.1-8.9-8.5c-8.9-8.5-9-8.5-8.5-12.8.7-5.5-1.5-8.9-6.2-9.8-6.1-1.1-11.5 4.3-10.1 10.1 1 3.9 4.1 6.5 8 6.5 3 0 3.6.5 5.4 4.2 1.1 2.4 4.5 9.5 7.5 15.8 3 6.3 7.7 16.3 10.6 22.2l5.1 10.7-6.3 7.8c-7.6 9.6-13.7 21-17.3 32.8-2.6 8.5-2.8 10.2-2.8 28.5-.1 22.1.9 27.6 7.4 41.6 8.7 18.7 21.5 32.1 39.6 41.2 18.2 9.2 44.5 13.5 68.4 11.2 29.8-2.7 52.6-12.8 55.9-24.5 1.5-5.4 1.5-74.3 0-78.2-1.3-3.5-4.5-7-8.4-9.1-2.5-1.4-7.3-1.8-31-2-31.5-.4-36.5.2-41.3 4.9-5.6 5.5-6.7 17.9-2.5 29.9l1.9 5.5 16.2.3 16.3.2-.3 14.2-.3 14.1-4 1.4c-10.6 3.7-27.3 2.4-39-3.1-11.2-5.2-20.6-17.1-24.1-30.7-2.3-8.6-2.3-25.4-.1-33.8 6.9-26 31-40.8 60.7-37.3 10.4 1.2 17.5 3.4 29.3 8.9l7.8 3.6 3.9-3.8c5.7-5.5 8-10.9 8-18.1 0-7.5-2.4-12.7-8.3-18.1-7.8-7.2-21.1-12.5-35-13.8-11.4-1.1-10.2.8-11.6-18.2-.7-9.3-1.6-21.1-2.1-26.3-.7-8.3-.6-9.6.8-10.7 4.4-3.1 5.3-4.8 5-8.7-.2-3.3-.9-4.5-3.7-6.3-3.9-2.7-3.7-2.6-7.8-.8z"/></svg>